<svg xmlns="http://www.w3.org/2000/svg" viewBox="0 0 469.69873 197.27263">

<g>
<path d="M81.26465,1.74316h36.68945l-39.76074,121.35742H39.59473L0,1.74316H36.85547l16.51855,61.50879c3.43066,13.66895,5.3125,23.1875,5.64453,28.55469,.38672-3.87305,1.16211-8.71582,2.32422-14.52637s2.18555-10.37598,3.07129-13.69629L81.26465,1.74316Z"/>
<path d="M189.09309,123.10059l-5.97656-22.74414h-39.42871l-6.14258,22.74414h-36.02539L141.11457,1.24512h43.74512l40.09277,121.85547h-35.85938Zm-12.7832-49.63867l-5.22949-19.92188c-1.21777-4.42676-2.69727-10.1543-4.44141-17.18262-1.74219-7.02734-2.8916-12.06348-3.44434-15.10742-.49805,2.82227-1.48145,7.4707-2.94629,13.94531-1.46777,6.47461-4.71875,19.23047-9.75391,38.2666h25.81543Z"/>
<path d="M352.70131,123.10059h-38.76367l-11.62109-52.87598c-.55469-2.21289-1.42578-6.6123-2.61523-13.19824-1.19141-6.58496-2.0625-12.09082-2.61523-16.51855-.44336,3.59766-1.16211,8.06592-2.1582,13.40576-.99609,5.34082-1.97852,10.25146-2.94531,14.73389-.9707,4.48242-4.99609,22.63379-12.07812,54.45312h-38.76514L211.09047,1.74316h31.62598l13.19775,60.84473c2.98828,13.44727,5.03516,24.15527,6.14258,32.12402,.71875-5.64453,2.00586-13.30859,3.86133-22.99316,1.85156-9.68359,3.58203-17.70801,5.1875-24.07227L281.81264,1.74316h30.38086l10.37695,45.90332c1.76953,7.36035,3.56836,15.85449,5.39453,25.4834s3.04297,16.82324,3.65234,21.58203c.71875-6.14258,2.68359-16.79492,5.89453-31.95801L350.95913,1.74316h31.625l-29.88281,121.35742Z"/>
<path d="M469.69873,86.24512c0,7.52637-1.91016,14.2085-5.72852,20.04639-3.81836,5.83887-9.32422,10.37598-16.51758,13.61328-7.19531,3.23682-15.63477,4.85596-25.31836,4.85596-8.08008,0-14.85742-.56836-20.33594-1.70166-5.47852-1.13379-11.17969-3.11279-17.09961-5.93506v-29.21875c6.25195,3.20996,12.75391,5.71436,19.50586,7.51221,6.75195,1.79883,12.94922,2.69775,18.59375,2.69775,4.86914,0,8.43945-.84326,10.70898-2.53174,2.26758-1.6875,3.40234-3.85986,3.40234-6.51611,0-1.66016-.45508-3.11279-1.36914-4.35791-.91211-1.24512-2.38086-2.50342-4.39844-3.77686-2.02148-1.27246-7.40234-3.87305-16.14648-7.80273-7.91406-3.59668-13.84961-7.08301-17.80469-10.45898-3.95703-3.375-6.88867-7.24902-8.79883-11.62109-1.9082-4.37109-2.86328-9.5459-2.86328-15.52246,0-11.17773,4.06641-19.89355,12.20117-26.14746,8.13477-6.25293,19.3125-9.37988,33.53516-9.37988,12.5625,0,25.37305,2.90527,38.43359,8.71582l-10.04492,25.31738c-11.34375-5.20117-21.13867-7.80273-29.38477-7.80273-4.26172,0-7.35938,.74707-9.29688,2.24121s-2.9043,3.34863-2.9043,5.56152c0,2.37988,1.23047,4.51074,3.69336,6.3916,2.46094,1.88184,9.14453,5.3125,20.04688,10.29297,10.45898,4.7041,17.72266,9.75342,21.78906,15.14893,4.06836,5.39551,6.10156,12.18896,6.10156,20.37842Z"/>

<path d="M105.73584,196.64763l-11-35.84375h-.28125c.39551,7.29199,.59375,12.15625,.59375,14.59375v21.25h-8.65625v-45.6875h13.1875l10.8125,34.9375h.1875l11.46875-34.9375h13.1875v45.6875h-9.03125v-21.625c0-1.02051,.01562-2.19727,.04688-3.53125,.03125-1.33301,.17188-4.875,.42188-10.625h-.28125l-11.78125,35.78125h-8.875Z"/>
<path d="M171.76807,196.64763h-26.3125v-45.6875h26.3125v7.9375h-16.625v10.03125h15.46875v7.9375h-15.46875v11.78125h16.625v8Z"/>
<path d="M199.36377,196.64763l-11-35.84375h-.28125c.39551,7.29199,.59375,12.15625,.59375,14.59375v21.25h-8.65625v-45.6875h13.1875l10.8125,34.9375h.1875l11.46875-34.9375h13.1875v45.6875h-9.03125v-21.625c0-1.02051,.01562-2.19727,.04688-3.53125,.03125-1.33301,.17188-4.875,.42188-10.625h-.28125l-11.78125,35.78125h-8.875Z"/>
<path d="M239.0835,150.96013h14.21924c6.47852,0,11.18164,.92188,14.10938,2.76562,2.92578,1.84375,4.39062,4.77637,4.39062,8.79688,0,2.72949-.64062,4.96875-1.92188,6.71875s-2.98438,2.80273-5.10938,3.15625v.3125c2.89453,.64648,4.98438,1.85449,6.26562,3.625,1.28125,1.77148,1.92188,4.125,1.92188,7.0625,0,4.16699-1.50586,7.41699-4.51562,9.75-3.01172,2.33398-7.09961,3.5-12.26562,3.5h-17.09424v-45.6875Zm9.68799,18.09375h5.625c2.625,0,4.52539-.40625,5.70312-1.21875,1.17578-.8125,1.76562-2.15625,1.76562-4.03125,0-1.75-.64062-3.00488-1.92188-3.76562-1.28125-.75977-3.30859-1.14062-6.07812-1.14062h-5.09375v10.15625Zm0,7.6875v11.90625h6.3125c2.66602,0,4.63477-.50977,5.90625-1.53125,1.26953-1.02051,1.90625-2.58301,1.90625-4.6875,0-3.79102-2.70898-5.6875-8.125-5.6875h-6Z"/>
<path d="M307.11523,196.64763h-26.3125v-45.6875h26.3125v7.9375h-16.625v10.03125h15.46875v7.9375h-15.46875v11.78125h16.625v8Z"/>
<path d="M325.05469,179.11638v17.53125h-9.6875v-45.6875h13.3125c6.20703,0,10.80078,1.13086,13.78125,3.39062,2.97852,2.26074,4.46875,5.69336,4.46875,10.29688,0,2.6875-.74023,5.07812-2.21875,7.17188-1.48047,2.09375-3.57422,3.73438-6.28125,4.92188,6.875,10.27148,11.35352,16.90625,13.4375,19.90625h-10.75l-10.90625-17.53125h-5.15625Zm0-7.875h3.125c3.0625,0,5.32227-.50977,6.78125-1.53125,1.45703-1.02051,2.1875-2.625,2.1875-4.8125,0-2.16602-.74609-3.70801-2.23438-4.625-1.49023-.91602-3.79688-1.375-6.92188-1.375h-2.9375v12.34375Z"/>
<path d="M383.30664,183.96013c0,4.125-1.48438,7.375-4.45312,9.75s-7.09961,3.5625-12.39062,3.5625c-4.875,0-9.1875-.91602-12.9375-2.75v-9c3.08203,1.375,5.69141,2.34375,7.82812,2.90625,2.13477,.5625,4.08789,.84375,5.85938,.84375,2.125,0,3.75391-.40625,4.89062-1.21875,1.13477-.8125,1.70312-2.02051,1.70312-3.625,0-.89551-.25-1.69238-.75-2.39062-.5-.69727-1.23438-1.36914-2.20312-2.01562-.96875-.64551-2.94336-1.67676-5.92188-3.09375-2.79297-1.3125-4.88672-2.57227-6.28125-3.78125-1.39648-1.20801-2.51172-2.61426-3.34375-4.21875-.83398-1.60352-1.25-3.47852-1.25-5.625,0-4.04102,1.36914-7.21875,4.10938-9.53125,2.73828-2.3125,6.52539-3.46875,11.35938-3.46875,2.375,0,4.64062,.28125,6.79688,.84375s4.41016,1.35449,6.76562,2.375l-3.125,7.53125c-2.4375-1-4.45312-1.69727-6.04688-2.09375-1.59375-.39551-3.16211-.59375-4.70312-.59375-1.83398,0-3.24023,.42773-4.21875,1.28125-.98047,.85449-1.46875,1.96875-1.46875,3.34375,0,.85449,.19727,1.59961,.59375,2.23438,.39453,.63574,1.02539,1.25,1.89062,1.84375,.86328,.59375,2.91016,1.66211,6.14062,3.20312,4.26953,2.04199,7.19727,4.08887,8.78125,6.14062,1.58203,2.05273,2.375,4.56836,2.375,7.54688Z"/>
</g>

</svg>