<svg xmlns="http://www.w3.org/2000/svg" viewBox="0 0 662 126"><path d="M103.15,45.25c-2.45-6.82.85-6.82,2.79-12.23a.3.3,0,0,1,0-.1L117.55-.48h-33L75.29,31.39c-.26,1.33-.47,2.69-.67,4C73,46.58,88.53,53.63,79.69,63.52,73.44,70.8,64.07,75,60.09,84,59.4,86.42,59,87.8,59,87.8L57.9,84A22.18,22.18,0,0,1,57,79.65c-.17-2.08-1.24-4.22,3.42-6.58C75,64.18,61.61,52.44,49.47,43.66,37.3,33.91,33.33-.48,33.33-.48H.27S5.21,14,11.73,33a34.52,34.52,0,0,0,1.51,3.86C17.77,46.35,28.17,49,36,55.72c1.56,1.56,3.13,2.2,2.08,5.72-2.6,8.32-11.45,15.61-8,24.92l1.33,3.86c6.52,19,11.46,33.45,11.46,33.45H74.47S81,105.15,88.8,82.39C92,73.12,112,70,103.15,45.25"/><path d="M195.81,86.36c-2-4.11-.41-8.27,2.2-11.91,4.68-5.2,15.61-12,6.24-18.21S184,46.87,177.76,36.83A39.71,39.71,0,0,1,176.15,33c-7-19-12.32-33.45-12.32-33.45H131.48L119.07,33a30.82,30.82,0,0,0-1.21,3.86c-2.77,7.55,3.12,13.33,5.55,20a7.32,7.32,0,0,1-1.83,7.66l-.06,0c-7.81,7.29-18.21,12-22.27,21.8l-1.43,3.86L85.41,123.67h33.06l6.15-19.87h45.72l6.16,19.87h33.05L197.24,90.22c-.47-1.27-.94-2.56-1.43-3.86M167.3,72.53a9.45,9.45,0,0,0-2.39,4.78s0,.06,0,.08a4.8,4.8,0,0,1-4.14,3.86c-9.36,1.2-19,0-28.32,0,6.25-7.8,15.62-10.92,22.9-18.21A5.94,5.94,0,0,0,157,57.91a3.5,3.5,0,0,0-.39-1.21c-3.87-7.49-13.7-12.67-11-22.19.91-3.35,1.52-5.45,1.52-5.45s.64,2.1,1.68,5.45c.81,3,2.37,5.07,4.45,7.68C160,50,172,52.07,174.59,61.44c1.34,4.46-3.82,7.39-7.29,11.09"/><path d="M319,48.43c-4.17-3.64-8.33-8.33-8-14.27V-.48H279.86V32.85a17.19,17.19,0,0,0,.14,2.27c.14,1,.29,2,.5,3,2.34,10.7,10.92,12.91,16.64,19.68,1.21,1.33,1.93,2.61.52,3.64-16.72,12.23-18,25.75-19.65,29a18.33,18.33,0,0,1-4.13,5.76c-4.4,3.87-9.5,4.58-15.3,4.58-2.11,0-10.38,0-16.53-4.75a13.29,13.29,0,0,1-3.69-4.23,12.44,12.44,0,0,1-1.67-5.91c-.1-9.53,8.42-12.51,14.66-17.2,3.65-2.6,11.11-5.43,7.29-10.4C247.7,44.08,236.28,49,236.28,34.07c0-1.38,0-2.74,0-4.1V-.48H205V34.16C205,46.35,218.05,50,224.82,57.8a3.9,3.9,0,0,1,0,4.68c-6.77,7.81-20.3,12.49-19,24.61.21,1.48.47,2.94.79,4.4a39.09,39.09,0,0,0,10.64,20c14.06,14.07,34.82,15,40.26,15,7,0,39.74-1.93,50.12-30.95.5-1.44.85-2.9,1.29-4.34,2.92-9.74,22-21.26,22-31.31,0-7.28-7.28-7.81-12-11.45"/><path d="M448.7,61.44c.91-2.14-.52-4.16-2.08-5.72-5.58-5.11-12.4-9.39-15.55-16.29A12.28,12.28,0,0,1,430,34.81c0-.62-.05-1.23-.07-1.84V-.48H400.21s.23,14.31.48,30.66c0,1.36.08,2.74.08,4.12,0,14.09,19.31,14.65,19.83,26.1.52,7.8-11.45,10.4-16.13,17.17,1-6.77,12-10.41,8.32-16.13C404.47,47.91,384.7,49,376.66,34.82c-.73-1.21-1.43-2.42-2.13-3.62L356.07-.48H325.65V33c0,.86,0,1.73.08,2.6a8.58,8.58,0,0,0,.41,2.47c3.61,10.52,20,12.36,18.49,23.4-1,9.89-18.73,12.49-19,24.92v37.31h29.9s-.23-16.57-.47-34.32c0-1.36.05-2.73.12-4.11.88-10.79,17.53-12.22,17.53-23.8,0-4.56-7.8-9.89-12.49-14.57,6.77,6.24,23.94,7.28,21.34,17.69-1.56,6.77-8.85,13-4.54,20.68.66,1.21,1.37,2.41,2.07,3.6l20.4,34.83h30.42V86.36c0-11.91,14.48-14.86,18.77-24.92"/><path d="M549.62,34c-.57-1.28-1-2.53-1.57-3.67a53.15,53.15,0,0,0-3.31-6,42.21,42.21,0,0,0-9.85-11.25C519.77.58,499,.05,493.74-.3c-3.69-.18-7.39-.18-11.25-.18H442.92V33a33.75,33.75,0,0,0,.24,3.86c2.08,9.52,11.45,12.64,17.17,19.41,7.81,8.32-7.8,13.52-13,19.25a18.39,18.39,0,0,0-4.4,10.87v37.31h48.71a83.91,83.91,0,0,0,19.87-1.94c15.12-3.51,24.27-11.6,28.31-16.18a53.72,53.72,0,0,0,9.63-16.64c.54-1.47,1.06-3,1.75-4.65C555,73.41,567,70.8,574.28,62.48a2.86,2.86,0,0,0,0-3.64c-7.61-9.1-18.79-11.69-24.66-24.87M516,87.78a27.64,27.64,0,0,1-4.46,4.41c-8.09,6-18.64,6.51-27.78,6.51h-9.5V90.08c0-1.76.23-3.71.23-5.85,0-11.26,14.53-13.59,19.39-22.16a4.44,4.44,0,0,0-.73-5.31C485.83,50,474.22,45.7,474.22,34.34V25.72h12.49c6,0,11.25-.17,17.05,1.76a24.3,24.3,0,0,1,7.92,4.22,101.67,101.67,0,0,1,7.68,8.09C526.17,47.55,541,50.84,541,60.92c0,11.12-17.86,18.36-25,26.86"/><path d="M635.78,35.73c.8-1.16,26-36.21,26-36.21H626.39L605.57,32.47c-.91,1.45-1.74,2.79-2.39,4A9.61,9.61,0,0,0,602.5,38a22.89,22.89,0,0,0-1,3.57,51.9,51.9,0,0,1-4.16-4.37,48.5,48.5,0,0,1-3.3-4.71C586.21,20.11,573.11-.48,573.11-.48H537.59l23.3,33.15c.83,1.18,1.67,2.37,2.6,3.54C573,46.87,587,50.51,599,57.8c2.6,1.56,4.68,5.2,2.6,7.8-6.24,6.25-17.35,8.87-17.35,20.58,0,1.39,0,2.8,0,4.23v33.26h30.59V87C615.1,76,625.51,70.8,633,64.94a36.11,36.11,0,0,0,4.95-3.63c6.63-5.4-3.57-10.8-4.61-17a10.62,10.62,0,0,1,2.47-8.54"/></svg>
